<?xml version="1.0" encoding="utf-8"?>
<!-- Generator: Adobe Illustrator 24.0.1, SVG Export Plug-In . SVG Version: 6.00 Build 0)  -->
<svg version="1.1" id="Camada_1" xmlns="http://www.w3.org/2000/svg" xmlns:xlink="http://www.w3.org/1999/xlink" x="0px" y="0px"
	 viewBox="0 0 100 100" style="enable-background:new 0 0 100 100;" xml:space="preserve">
<style type="text/css">
	.st0{fill:none;stroke:#00C0CB;stroke-width:2;stroke-miterlimit:10;}
	.st1{fill:none;stroke:#FFFFFF;stroke-width:2;stroke-miterlimit:10;}
	.st2{fill:none;stroke:#000000;stroke-width:2;stroke-miterlimit:10;}
	.st3{fill:#FCFCFC;}
	.st4{fill:#FFFDFD;}
	.st5{fill:none;stroke:#FFFFFF;stroke-width:3;stroke-miterlimit:10;}
</style>
<path class="st0" d="M69.6,79.7H29.1c-3.2,0-5.8-2.6-5.8-5.8V37.4c0-3.2,2.6-5.8,5.8-5.8h40.5c3.2,0,5.8,2.6,5.8,5.8v36.5
	C75.4,77.1,72.8,79.7,69.6,79.7z"/>
<circle cx="61.4" cy="49.1" r="7.4"/>
<circle class="st1" cx="37.7" cy="49.1" r="9.5"/>
<circle class="st2" cx="37.7" cy="49.1" r="5"/>
<circle class="st1" cx="61.4" cy="49.1" r="9.5"/>
<circle cx="37.7" cy="49.1" r="7.4"/>
<circle class="st3" cx="37.7" cy="49.1" r="4.3"/>
<circle class="st3" cx="61.4" cy="49.1" r="4.3"/>
<rect x="47.2" y="48.2" class="st4" width="4.8" height="3.1"/>
<path class="st3" d="M40,22.5v8.8c0,0.7,0.6,1.3,1.3,1.3l0,0c0.7,0,1.3-0.6,1.3-1.3v-6.4c0-0.7,0.6-1.3,1.3-1.3h11.1
	c0.7,0,1.3,0.6,1.3,1.3v6.4c0,0.7,0.6,1.3,1.3,1.3l0,0c0.7,0,1.3-0.6,1.3-1.3v-8.8c0-0.7-0.6-1.3-1.3-1.3H41.2
	C40.5,21.2,40,21.8,40,22.5z"/>
<path class="st3" d="M83.9,44.7l-8.2,0.1c-0.7,0-1.2,0.6-1.2,1.3l0,0c0,0.7,0.6,1.2,1.2,1.2l6-0.1c0.7,0,1.2,0.5,1.2,1.2L83.1,59
	c0,0.7-0.5,1.2-1.2,1.3l-6,0.1c-0.7,0-1.2,0.6-1.2,1.3l0,0c0,0.7,0.6,1.2,1.2,1.2l8.2-0.1c0.7,0,1.2-0.6,1.2-1.3l-0.2-15.5
	C85.1,45.3,84.5,44.7,83.9,44.7z"/>
<path class="st3" d="M14,63.2l8.2-0.1c0.7,0,1.2-0.6,1.2-1.3l0,0c0-0.7-0.5-1.2-1.2-1.2l-6,0.1c-0.7,0-1.2-0.5-1.2-1.2l-0.1-10.6
	c0-0.7,0.5-1.2,1.2-1.3l6-0.1c0.7,0,1.2-0.6,1.2-1.3l0,0c0-0.7-0.5-1.2-1.2-1.2l-8.2,0.1c-0.7,0-1.2,0.6-1.2,1.3L12.8,62
	C12.8,62.6,13.3,63.2,14,63.2z"/>
<path class="st0" d="M69.6,79.7H29.1c-3.2,0-5.8-2.6-5.8-5.8V37.4c0-3.2,2.6-5.8,5.8-5.8h40.5c3.2,0,5.8,2.6,5.8,5.8v36.5
	C75.4,77.1,72.8,79.7,69.6,79.7z"/>
<path class="st5" d="M58,71.4H40.7c-2,0-3.6-1.6-3.6-3.6l0,0c0-2,1.6-3.6,3.6-3.6H58c2,0,3.6,1.6,3.6,3.6l0,0
	C61.6,69.8,60,71.4,58,71.4z"/>
<path class="st3" d="M43.7,69.9L43.7,69.9c-0.7,0-1.3-0.6-1.3-1.3v-1.7c0-0.7,0.6-1.3,1.3-1.3l0,0c0.7,0,1.3,0.6,1.3,1.3v1.7
	C45,69.3,44.4,69.9,43.7,69.9z"/>
<path class="st3" d="M49.3,70L49.3,70c-0.7,0-1.3-0.6-1.3-1.3v-1.7c0-0.7,0.6-1.3,1.3-1.3l0,0c0.7,0,1.3,0.6,1.3,1.3v1.7
	C50.7,69.4,50.1,70,49.3,70z"/>
<path class="st3" d="M54.8,70L54.8,70c-0.7,0-1.3-0.6-1.3-1.3v-1.7c0-0.7,0.6-1.3,1.3-1.3l0,0c0.7,0,1.3,0.6,1.3,1.3v1.7
	C56.2,69.4,55.6,70,54.8,70z"/>
</svg>
